<svg width="80" height="80" viewBox="0 0 80 80" fill="none" xmlns="http://www.w3.org/2000/svg">
<path d="M78.5 40C78.5 61.263 61.263 78.5 40 78.5C18.737 78.5 1.5 61.263 1.5 40C1.5 18.737 18.737 1.5 40 1.5C61.263 1.5 78.5 18.737 78.5 40Z" stroke="white" stroke-width="3"/>
<path d="M38.5858 66.4142C39.3668 67.1953 40.6332 67.1953 41.4142 66.4142L54.1421 53.6863C54.9232 52.9052 54.9232 51.6389 54.1421 50.8579C53.3611 50.0768 52.0948 50.0768 51.3137 50.8579L40 62.1716L28.6863 50.8579C27.9052 50.0768 26.6389 50.0768 25.8579 50.8579C25.0768 51.6389 25.0768 52.9052 25.8579 53.6863L38.5858 66.4142ZM38 15L38 65L42 65L42 15L38 15Z" fill="white"/>
</svg>
