<svg width="529" height="58" viewBox="0 0 529 58" fill="none" xmlns="http://www.w3.org/2000/svg">
<path d="M0 3H460C465.523 3 470 7.47715 470 13C470 18.5228 465.523 23 460 23H0V3Z" fill="#D62532"/>
<path d="M495.488 21.28C493.995 21.28 492.856 20.86 492.072 20.02C491.288 19.1613 490.896 17.9387 490.896 16.352V15.988H493.808V16.548C493.808 17.836 494.34 18.48 495.404 18.48C495.983 18.48 496.412 18.3027 496.692 17.948C496.972 17.5933 497.112 16.968 497.112 16.072V12.32H497.056C496.515 13.4587 495.581 14.028 494.256 14.028C493.136 14.028 492.287 13.6453 491.708 12.88C491.129 12.1147 490.84 11.004 490.84 9.548V6.048C490.84 4.48 491.241 3.26667 492.044 2.408C492.847 1.54933 494.004 1.12 495.516 1.12C497.028 1.12 498.185 1.54933 498.988 2.408C499.791 3.26667 500.192 4.48 500.192 6.048V16.184C500.192 19.5813 498.624 21.28 495.488 21.28ZM495.516 11.228C496.58 11.228 497.112 10.584 497.112 9.296V5.824C497.112 4.55467 496.58 3.92 495.516 3.92C494.452 3.92 493.92 4.55467 493.92 5.824V9.296C493.92 10.584 494.452 11.228 495.516 11.228ZM502.303 18.872C502.303 17.472 502.527 16.2773 502.975 15.288C503.423 14.28 504.226 13.1693 505.383 11.956C506.522 10.7427 507.306 9.70667 507.735 8.848C508.183 7.98933 508.407 7.09333 508.407 6.16C508.407 5.32 508.267 4.74133 507.987 4.424C507.726 4.088 507.334 3.92 506.811 3.92C505.747 3.92 505.215 4.564 505.215 5.852V7.952H502.303V6.048C502.303 4.46133 502.695 3.248 503.479 2.408C504.263 1.54933 505.402 1.12 506.895 1.12C508.388 1.12 509.527 1.54933 510.311 2.408C511.095 3.248 511.487 4.46133 511.487 6.048C511.487 7.24267 511.198 8.40933 510.619 9.548C510.059 10.6867 509.079 11.9933 507.679 13.468C506.764 14.4387 506.148 15.232 505.831 15.848C505.514 16.4453 505.355 17.0893 505.355 17.78V18.2H511.207V21H502.303V18.872ZM516.37 12.292C515.399 12.292 514.662 12.0213 514.158 11.48C513.654 10.9387 513.402 10.164 513.402 9.156V4.256C513.402 3.248 513.654 2.47333 514.158 1.932C514.662 1.39067 515.399 1.12 516.37 1.12C517.341 1.12 518.078 1.39067 518.582 1.932C519.086 2.47333 519.338 3.248 519.338 4.256V9.156C519.338 10.164 519.086 10.9387 518.582 11.48C518.078 12.0213 517.341 12.292 516.37 12.292ZM523.482 1.4H525.442L517.854 21H515.894L523.482 1.4ZM516.37 10.528C517.042 10.528 517.378 10.1173 517.378 9.296V4.116C517.378 3.29467 517.042 2.884 516.37 2.884C515.698 2.884 515.362 3.29467 515.362 4.116V9.296C515.362 10.1173 515.698 10.528 516.37 10.528ZM524.966 21.28C523.995 21.28 523.258 21.0093 522.754 20.468C522.25 19.9267 521.998 19.152 521.998 18.144V13.244C521.998 12.236 522.25 11.4613 522.754 10.92C523.258 10.3787 523.995 10.108 524.966 10.108C525.937 10.108 526.674 10.3787 527.178 10.92C527.682 11.4613 527.934 12.236 527.934 13.244V18.144C527.934 19.152 527.682 19.9267 527.178 20.468C526.674 21.0093 525.937 21.28 524.966 21.28ZM524.966 19.516C525.638 19.516 525.974 19.1053 525.974 18.284V13.104C525.974 12.2827 525.638 11.872 524.966 11.872C524.294 11.872 523.958 12.2827 523.958 13.104V18.284C523.958 19.1053 524.294 19.516 524.966 19.516Z" fill="#D62532"/>
<path d="M0 33H356C361.523 33 366 37.4772 366 43V43C366 48.5228 361.523 53 356 53H0V33Z" fill="#282B28"/>
<path d="M393.168 36.2H386.952V33.4H396.192V36.088L391.376 53H388.24L393.168 36.2ZM402.727 53.28C401.215 53.28 400.067 52.86 399.283 52.02C398.518 51.18 398.135 49.976 398.135 48.408V46.812H401.047V48.548C401.047 49.836 401.579 50.48 402.643 50.48C403.166 50.48 403.558 50.3213 403.819 50.004C404.099 49.668 404.239 49.0893 404.239 48.268V46.672C404.239 45.776 404.08 45.1413 403.763 44.768C403.446 44.376 402.932 44.18 402.223 44.18H401.187V41.38H402.307C402.923 41.38 403.38 41.2213 403.679 40.904C403.996 40.5867 404.155 40.0547 404.155 39.308V37.88C404.155 37.208 404.015 36.7133 403.735 36.396C403.455 36.0787 403.082 35.92 402.615 35.92C401.626 35.92 401.131 36.5267 401.131 37.74V39.028H398.219V37.992C398.219 36.424 398.602 35.22 399.367 34.38C400.151 33.54 401.271 33.12 402.727 33.12C404.202 33.12 405.322 33.54 406.087 34.38C406.852 35.2013 407.235 36.396 407.235 37.964V38.664C407.235 39.728 407.058 40.5867 406.703 41.24C406.348 41.8747 405.798 42.332 405.051 42.612V42.668C405.854 42.9667 406.432 43.452 406.787 44.124C407.142 44.796 407.319 45.6547 407.319 46.7V48.436C407.319 50.004 406.927 51.208 406.143 52.048C405.378 52.8693 404.239 53.28 402.727 53.28ZM412.37 44.292C411.399 44.292 410.662 44.0213 410.158 43.48C409.654 42.9387 409.402 42.164 409.402 41.156V36.256C409.402 35.248 409.654 34.4733 410.158 33.932C410.662 33.3907 411.399 33.12 412.37 33.12C413.341 33.12 414.078 33.3907 414.582 33.932C415.086 34.4733 415.338 35.248 415.338 36.256V41.156C415.338 42.164 415.086 42.9387 414.582 43.48C414.078 44.0213 413.341 44.292 412.37 44.292ZM419.482 33.4H421.442L413.854 53H411.894L419.482 33.4ZM412.37 42.528C413.042 42.528 413.378 42.1173 413.378 41.296V36.116C413.378 35.2947 413.042 34.884 412.37 34.884C411.698 34.884 411.362 35.2947 411.362 36.116V41.296C411.362 42.1173 411.698 42.528 412.37 42.528ZM420.966 53.28C419.995 53.28 419.258 53.0093 418.754 52.468C418.25 51.9267 417.998 51.152 417.998 50.144V45.244C417.998 44.236 418.25 43.4613 418.754 42.92C419.258 42.3787 419.995 42.108 420.966 42.108C421.937 42.108 422.674 42.3787 423.178 42.92C423.682 43.4613 423.934 44.236 423.934 45.244V50.144C423.934 51.152 423.682 51.9267 423.178 52.468C422.674 53.0093 421.937 53.28 420.966 53.28ZM420.966 51.516C421.638 51.516 421.974 51.1053 421.974 50.284V45.104C421.974 44.2827 421.638 43.872 420.966 43.872C420.294 43.872 419.958 44.2827 419.958 45.104V50.284C419.958 51.1053 420.294 51.516 420.966 51.516Z" fill="#282B28"/>
</svg>
