<svg width="501" height="58" viewBox="0 0 501 58" fill="none" xmlns="http://www.w3.org/2000/svg">
<path d="M0 3H432C437.523 3 442 7.47715 442 13C442 18.5228 437.523 23 432 23H0V3Z" fill="#D62532"/>
<path d="M467.6 21.28C466.051 21.28 464.856 20.8693 464.016 20.048C463.195 19.208 462.784 18.004 462.784 16.436V14.7C462.784 13.7293 462.943 12.9173 463.26 12.264C463.577 11.592 464.091 11.0693 464.8 10.696V10.64C464.147 10.2853 463.661 9.8 463.344 9.184C463.045 8.54933 462.896 7.74667 462.896 6.776V5.964C462.896 4.396 463.297 3.20133 464.1 2.38C464.921 1.54 466.088 1.12 467.6 1.12C469.112 1.12 470.269 1.54 471.072 2.38C471.893 3.20133 472.304 4.396 472.304 5.964V6.776C472.304 8.64267 471.669 9.93067 470.4 10.64V10.696C471.109 11.0693 471.623 11.592 471.94 12.264C472.257 12.9173 472.416 13.7293 472.416 14.7V16.436C472.416 18.004 471.996 19.208 471.156 20.048C470.335 20.8693 469.149 21.28 467.6 21.28ZM467.6 9.38C468.683 9.38 469.224 8.72667 469.224 7.42V5.88C469.224 4.57333 468.683 3.92 467.6 3.92C466.517 3.92 465.976 4.57333 465.976 5.88V7.42C465.976 8.72667 466.517 9.38 467.6 9.38ZM467.6 18.48C468.757 18.48 469.336 17.7427 469.336 16.268V14.392C469.336 12.9173 468.757 12.18 467.6 12.18C466.443 12.18 465.864 12.9173 465.864 14.392V16.268C465.864 17.7427 466.443 18.48 467.6 18.48ZM474.303 18.872C474.303 17.472 474.527 16.2773 474.975 15.288C475.423 14.28 476.226 13.1693 477.383 11.956C478.522 10.7427 479.306 9.70667 479.735 8.848C480.183 7.98933 480.407 7.09333 480.407 6.16C480.407 5.32 480.267 4.74133 479.987 4.424C479.726 4.088 479.334 3.92 478.811 3.92C477.747 3.92 477.215 4.564 477.215 5.852V7.952H474.303V6.048C474.303 4.46133 474.695 3.248 475.479 2.408C476.263 1.54933 477.402 1.12 478.895 1.12C480.388 1.12 481.527 1.54933 482.311 2.408C483.095 3.248 483.487 4.46133 483.487 6.048C483.487 7.24267 483.198 8.40933 482.619 9.548C482.059 10.6867 481.079 11.9933 479.679 13.468C478.764 14.4387 478.148 15.232 477.831 15.848C477.514 16.4453 477.355 17.0893 477.355 17.78V18.2H483.207V21H474.303V18.872ZM488.37 12.292C487.399 12.292 486.662 12.0213 486.158 11.48C485.654 10.9387 485.402 10.164 485.402 9.156V4.256C485.402 3.248 485.654 2.47333 486.158 1.932C486.662 1.39067 487.399 1.12 488.37 1.12C489.341 1.12 490.078 1.39067 490.582 1.932C491.086 2.47333 491.338 3.248 491.338 4.256V9.156C491.338 10.164 491.086 10.9387 490.582 11.48C490.078 12.0213 489.341 12.292 488.37 12.292ZM495.482 1.4H497.442L489.854 21H487.894L495.482 1.4ZM488.37 10.528C489.042 10.528 489.378 10.1173 489.378 9.296V4.116C489.378 3.29467 489.042 2.884 488.37 2.884C487.698 2.884 487.362 3.29467 487.362 4.116V9.296C487.362 10.1173 487.698 10.528 488.37 10.528ZM496.966 21.28C495.995 21.28 495.258 21.0093 494.754 20.468C494.25 19.9267 493.998 19.152 493.998 18.144V13.244C493.998 12.236 494.25 11.4613 494.754 10.92C495.258 10.3787 495.995 10.108 496.966 10.108C497.937 10.108 498.674 10.3787 499.178 10.92C499.682 11.4613 499.934 12.236 499.934 13.244V18.144C499.934 19.152 499.682 19.9267 499.178 20.468C498.674 21.0093 497.937 21.28 496.966 21.28ZM496.966 19.516C497.638 19.516 497.974 19.1053 497.974 18.284V13.104C497.974 12.2827 497.638 11.872 496.966 11.872C496.294 11.872 495.958 12.2827 495.958 13.104V18.284C495.958 19.1053 496.294 19.516 496.966 19.516Z" fill="#D62532"/>
<path d="M0 33H220C225.523 33 230 37.4772 230 43C230 48.5228 225.523 53 220 53H0V33Z" fill="#282B28"/>
<path d="M256.3 49.444H250.42V46.644L256.02 33.4H259.38V46.644H260.836V49.444H259.38V53H256.3V49.444ZM256.3 46.644V39H256.244L253.22 46.644H256.3ZM266.671 38.048H263.451V35.864C264.328 35.864 265.028 35.7893 265.551 35.64C266.092 35.4907 266.522 35.248 266.839 34.912C267.156 34.5573 267.436 34.0533 267.679 33.4H269.751V53H266.671V38.048ZM276.37 44.292C275.399 44.292 274.662 44.0213 274.158 43.48C273.654 42.9387 273.402 42.164 273.402 41.156V36.256C273.402 35.248 273.654 34.4733 274.158 33.932C274.662 33.3907 275.399 33.12 276.37 33.12C277.341 33.12 278.078 33.3907 278.582 33.932C279.086 34.4733 279.338 35.248 279.338 36.256V41.156C279.338 42.164 279.086 42.9387 278.582 43.48C278.078 44.0213 277.341 44.292 276.37 44.292ZM283.482 33.4H285.442L277.854 53H275.894L283.482 33.4ZM276.37 42.528C277.042 42.528 277.378 42.1173 277.378 41.296V36.116C277.378 35.2947 277.042 34.884 276.37 34.884C275.698 34.884 275.362 35.2947 275.362 36.116V41.296C275.362 42.1173 275.698 42.528 276.37 42.528ZM284.966 53.28C283.995 53.28 283.258 53.0093 282.754 52.468C282.25 51.9267 281.998 51.152 281.998 50.144V45.244C281.998 44.236 282.25 43.4613 282.754 42.92C283.258 42.3787 283.995 42.108 284.966 42.108C285.937 42.108 286.674 42.3787 287.178 42.92C287.682 43.4613 287.934 44.236 287.934 45.244V50.144C287.934 51.152 287.682 51.9267 287.178 52.468C286.674 53.0093 285.937 53.28 284.966 53.28ZM284.966 51.516C285.638 51.516 285.974 51.1053 285.974 50.284V45.104C285.974 44.2827 285.638 43.872 284.966 43.872C284.294 43.872 283.958 44.2827 283.958 45.104V50.284C283.958 51.1053 284.294 51.516 284.966 51.516Z" fill="#282B28"/>
</svg>
