<svg width="529" height="58" viewBox="0 0 529 58" fill="none" xmlns="http://www.w3.org/2000/svg">
<path d="M0 3H460C465.523 3 470 7.47715 470 13C470 18.5228 465.523 23 460 23H0V3Z" fill="#D62532"/>
<path d="M495.488 21.28C493.995 21.28 492.856 20.86 492.072 20.02C491.288 19.1613 490.896 17.9387 490.896 16.352V15.988H493.808V16.548C493.808 17.836 494.34 18.48 495.404 18.48C495.983 18.48 496.412 18.3027 496.692 17.948C496.972 17.5933 497.112 16.968 497.112 16.072V12.32H497.056C496.515 13.4587 495.581 14.028 494.256 14.028C493.136 14.028 492.287 13.6453 491.708 12.88C491.129 12.1147 490.84 11.004 490.84 9.548V6.048C490.84 4.48 491.241 3.26667 492.044 2.408C492.847 1.54933 494.004 1.12 495.516 1.12C497.028 1.12 498.185 1.54933 498.988 2.408C499.791 3.26667 500.192 4.48 500.192 6.048V16.184C500.192 19.5813 498.624 21.28 495.488 21.28ZM495.516 11.228C496.58 11.228 497.112 10.584 497.112 9.296V5.824C497.112 4.55467 496.58 3.92 495.516 3.92C494.452 3.92 493.92 4.55467 493.92 5.824V9.296C493.92 10.584 494.452 11.228 495.516 11.228ZM502.303 18.872C502.303 17.472 502.527 16.2773 502.975 15.288C503.423 14.28 504.226 13.1693 505.383 11.956C506.522 10.7427 507.306 9.70667 507.735 8.848C508.183 7.98933 508.407 7.09333 508.407 6.16C508.407 5.32 508.267 4.74133 507.987 4.424C507.726 4.088 507.334 3.92 506.811 3.92C505.747 3.92 505.215 4.564 505.215 5.852V7.952H502.303V6.048C502.303 4.46133 502.695 3.248 503.479 2.408C504.263 1.54933 505.402 1.12 506.895 1.12C508.388 1.12 509.527 1.54933 510.311 2.408C511.095 3.248 511.487 4.46133 511.487 6.048C511.487 7.24267 511.198 8.40933 510.619 9.548C510.059 10.6867 509.079 11.9933 507.679 13.468C506.764 14.4387 506.148 15.232 505.831 15.848C505.514 16.4453 505.355 17.0893 505.355 17.78V18.2H511.207V21H502.303V18.872ZM516.37 12.292C515.399 12.292 514.662 12.0213 514.158 11.48C513.654 10.9387 513.402 10.164 513.402 9.156V4.256C513.402 3.248 513.654 2.47333 514.158 1.932C514.662 1.39067 515.399 1.12 516.37 1.12C517.341 1.12 518.078 1.39067 518.582 1.932C519.086 2.47333 519.338 3.248 519.338 4.256V9.156C519.338 10.164 519.086 10.9387 518.582 11.48C518.078 12.0213 517.341 12.292 516.37 12.292ZM523.482 1.4H525.442L517.854 21H515.894L523.482 1.4ZM516.37 10.528C517.042 10.528 517.378 10.1173 517.378 9.296V4.116C517.378 3.29467 517.042 2.884 516.37 2.884C515.698 2.884 515.362 3.29467 515.362 4.116V9.296C515.362 10.1173 515.698 10.528 516.37 10.528ZM524.966 21.28C523.995 21.28 523.258 21.0093 522.754 20.468C522.25 19.9267 521.998 19.152 521.998 18.144V13.244C521.998 12.236 522.25 11.4613 522.754 10.92C523.258 10.3787 523.995 10.108 524.966 10.108C525.937 10.108 526.674 10.3787 527.178 10.92C527.682 11.4613 527.934 12.236 527.934 13.244V18.144C527.934 19.152 527.682 19.9267 527.178 20.468C526.674 21.0093 525.937 21.28 524.966 21.28ZM524.966 19.516C525.638 19.516 525.974 19.1053 525.974 18.284V13.104C525.974 12.2827 525.638 11.872 524.966 11.872C524.294 11.872 523.958 12.2827 523.958 13.104V18.284C523.958 19.1053 524.294 19.516 524.966 19.516Z" fill="#D62532"/>
<path d="M0 33H263C268.523 33 273 37.4772 273 43C273 48.5228 268.523 53 263 53H0V33Z" fill="#282B28"/>
<path d="M298.656 53.28C297.163 53.28 296.024 52.86 295.24 52.02C294.456 51.1613 294.064 49.9387 294.064 48.352V46.812H296.976V48.576C296.976 49.8453 297.508 50.48 298.572 50.48C299.636 50.48 300.168 49.8453 300.168 48.576V44.18C300.168 42.892 299.636 42.248 298.572 42.248C297.508 42.248 296.976 42.892 296.976 44.18V44.348H294.064L294.624 33.4H302.744V36.2H297.368L297.116 40.876H297.172C297.751 39.924 298.637 39.448 299.832 39.448C300.952 39.448 301.801 39.8307 302.38 40.596C302.959 41.3613 303.248 42.472 303.248 43.928V48.352C303.248 49.9387 302.856 51.1613 302.072 52.02C301.288 52.86 300.149 53.28 298.656 53.28ZM309.727 53.28C308.215 53.28 307.067 52.86 306.283 52.02C305.518 51.18 305.135 49.976 305.135 48.408V46.812H308.047V48.548C308.047 49.836 308.579 50.48 309.643 50.48C310.166 50.48 310.558 50.3213 310.819 50.004C311.099 49.668 311.239 49.0893 311.239 48.268V46.672C311.239 45.776 311.08 45.1413 310.763 44.768C310.446 44.376 309.932 44.18 309.223 44.18H308.187V41.38H309.307C309.923 41.38 310.38 41.2213 310.679 40.904C310.996 40.5867 311.155 40.0547 311.155 39.308V37.88C311.155 37.208 311.015 36.7133 310.735 36.396C310.455 36.0787 310.082 35.92 309.615 35.92C308.626 35.92 308.131 36.5267 308.131 37.74V39.028H305.219V37.992C305.219 36.424 305.602 35.22 306.367 34.38C307.151 33.54 308.271 33.12 309.727 33.12C311.202 33.12 312.322 33.54 313.087 34.38C313.852 35.2013 314.235 36.396 314.235 37.964V38.664C314.235 39.728 314.058 40.5867 313.703 41.24C313.348 41.8747 312.798 42.332 312.051 42.612V42.668C312.854 42.9667 313.432 43.452 313.787 44.124C314.142 44.796 314.319 45.6547 314.319 46.7V48.436C314.319 50.004 313.927 51.208 313.143 52.048C312.378 52.8693 311.239 53.28 309.727 53.28ZM319.37 44.292C318.399 44.292 317.662 44.0213 317.158 43.48C316.654 42.9387 316.402 42.164 316.402 41.156V36.256C316.402 35.248 316.654 34.4733 317.158 33.932C317.662 33.3907 318.399 33.12 319.37 33.12C320.341 33.12 321.078 33.3907 321.582 33.932C322.086 34.4733 322.338 35.248 322.338 36.256V41.156C322.338 42.164 322.086 42.9387 321.582 43.48C321.078 44.0213 320.341 44.292 319.37 44.292ZM326.482 33.4H328.442L320.854 53H318.894L326.482 33.4ZM319.37 42.528C320.042 42.528 320.378 42.1173 320.378 41.296V36.116C320.378 35.2947 320.042 34.884 319.37 34.884C318.698 34.884 318.362 35.2947 318.362 36.116V41.296C318.362 42.1173 318.698 42.528 319.37 42.528ZM327.966 53.28C326.995 53.28 326.258 53.0093 325.754 52.468C325.25 51.9267 324.998 51.152 324.998 50.144V45.244C324.998 44.236 325.25 43.4613 325.754 42.92C326.258 42.3787 326.995 42.108 327.966 42.108C328.937 42.108 329.674 42.3787 330.178 42.92C330.682 43.4613 330.934 44.236 330.934 45.244V50.144C330.934 51.152 330.682 51.9267 330.178 52.468C329.674 53.0093 328.937 53.28 327.966 53.28ZM327.966 51.516C328.638 51.516 328.974 51.1053 328.974 50.284V45.104C328.974 44.2827 328.638 43.872 327.966 43.872C327.294 43.872 326.958 44.2827 326.958 45.104V50.284C326.958 51.1053 327.294 51.516 327.966 51.516Z" fill="#282B28"/>
</svg>
